<svg xmlns="http://www.w3.org/2000/svg" viewBox="0 0 480.011 480.011"><path d="M7.873 239.899h.28a8 8 0 008-7.728C20.481 108.535 124.216 11.817 247.852 16.144a223.998 223.998 0 01130.733 47.867h-42.576a8 8 0 000 16h64.112a8.071 8.071 0 001.84-.368 8.586 8.586 0 001.208-.264c.224-.096.392-.296.608-.416a7.649 7.649 0 001.952-1.368l.08-.056c.203-.278.388-.569.552-.872a7.714 7.714 0 001.048-1.672c.22-.638.355-1.302.4-1.976.092-.33.159-.667.2-1.008v-64a8 8 0 00-16 0v46.336C289.508-29.635 138.332-14.623 54.35 87.879A239.945 239.945 0 00.153 231.635a8 8 0 007.72 8.264zm64.768 148.984a8.016 8.016 0 00-11.316-.684 8.016 8.016 0 00-.684 11.316 243.721 243.721 0 0017.432 17.664 8 8 0 0010.792-11.808 225.756 225.756 0 01-16.224-16.488zm95.472 63.344a222.984 222.984 0 01-21.512-8.552 8 8 0 10-6.688 14.528 236.235 236.235 0 0023.072 9.184 8.002 8.002 0 005.128-15.16zm-42.024-19.304v-.008a229.571 229.571 0 01-19.312-12.8 8 8 0 00-11.236 1.326 8 8 0 001.724 11.531 242.672 242.672 0 0020.664 13.72 8.002 8.002 0 108.16-13.769zm-67.936-62.096a227.034 227.034 0 01-12.544-19.464 8.01 8.01 0 10-13.88 8 242.084 242.084 0 0013.44 20.808 8 8 0 0012.984-9.344zm-22.314-36.81a8 8 0 00-.685-3.237l-.016-.056a223.41 223.41 0 01-8.28-21.6 8 8 0 00-9.82-5.618 8 8 0 00-5.38 10.554 240.466 240.466 0 008.864 23.2 8.001 8.001 0 0015.317-3.243zM14.717 296.22l.004-.001a8 8 0 006.16-9.48 226.736 226.736 0 01-3.616-22.872 8.005 8.005 0 00-15.92 1.688 241.507 241.507 0 003.888 24.496 8 8 0 009.484 6.169zm452.502-8.167l-.009-.002a8 8 0 00-9.688 5.84 224.195 224.195 0 01-6.712 22.168 8.001 8.001 0 004.816 10.24 8.001 8.001 0 0010.24-4.816 240.501 240.501 0 007.2-23.744 8.001 8.001 0 00-5.847-9.686zM213.217 462.411a224.154 224.154 0 01-22.816-3.92 8.001 8.001 0 00-3.528 15.608 240.384 240.384 0 0024.456 4.2 8 8 0 001.888-15.888zm239.249-128.728a8.001 8.001 0 00-10.681 3.72 222.673 222.673 0 01-11.152 20.296 7.999 7.999 0 002.778 10.967 8 8 0 0010.822-2.543 239.662 239.662 0 0011.944-21.752 8 8 0 00-3.711-10.688zm-23.635 41.607a8 8 0 00-11.382 1.465v-.016a224.17 224.17 0 01-15.08 17.6 8.005 8.005 0 0011.6 11.032 244.73 244.73 0 0016.144-18.84 8 8 0 00-1.282-11.241zm43.314-134.903a7.88 7.88 0 00-8.28 7.712 224.192 224.192 0 01-2.008 23.072 8 8 0 006.816 9.016c.371.054.745.081 1.12.08a8 8 0 007.912-6.896 242.245 242.245 0 002.152-24.712 8 8 0 00-7.712-8.272zm-86.536 169.864v.024a226.537 226.537 0 01-18.4 14.144 8.019 8.019 0 009.12 13.192 245.389 245.389 0 0019.68-15.2 8 8 0 10-10.4-12.16zm-80.712 44.224a223.102 223.102 0 01-22.48 5.52 8 8 0 001.496 15.856 8.16 8.16 0 001.512-.136 236.882 236.882 0 0024.096-5.928 8 8 0 00-4.624-15.312zm-45.008 8.667a8.033 8.033 0 00-.439.037l.04.032c-6.4.544-12.952.8-19.48.8h-3.656a8.28 8.28 0 00-8.152 7.856 8 8 0 007.853 8.144h3.955c6.992 0 14-.312 20.8-.896a8 8 0 00-.921-15.973zm87.632-26.579h.008a225.806 225.806 0 01-20.848 10.064 8 8 0 106.191 14.752 240.84 240.84 0 0022.336-10.784 8 8 0 003.172-10.86 7.998 7.998 0 00-10.859-3.172z"/><path d="M240.009 72.011c-92.784 0-168 75.216-168 168s75.216 168 168 168 168-75.216 168-168c-.105-92.74-75.26-167.894-168-168zm128 176h23.592c-4.156 77.517-66.075 139.436-143.592 143.592v-23.592a8 8 0 00-16 0v23.592c-77.517-4.156-139.436-66.075-143.592-143.592h23.592a8 8 0 000-16H88.417c4.156-77.517 66.075-139.436 143.592-143.592v23.592a8 8 0 0016 0V88.419c77.517 4.156 139.436 66.075 143.592 143.592h-23.592a8 8 0 000 16z"/><path d="M248.009 217.483v-73.472a8 8 0 00-16 0v73.472a24.001 24.001 0 00-14.528 14.528h-41.472a8 8 0 000 16h41.472c4.384 12.476 18.052 19.036 30.528 14.652 12.476-4.384 19.036-18.052 14.652-30.528a23.944 23.944 0 00-14.652-14.652zm-8 30.528a8 8 0 110-16 8 8 0 010 16z"/></svg>