<svg viewBox="0 0 512 512" xmlns="http://www.w3.org/2000/svg" xmlns:xlink="http://www.w3.org/1999/xlink"><style>:root&gt;svg{display:none}:root&gt;svg:target{display:block}</style><svg viewBox="0 0 512.336 512.336" id="back-in-time" xmlns="http://www.w3.org/2000/svg"><path d="M457.671 98.001h15.83c5.522 0 10-4.478 10-10s-4.478-10-10-10h-38c-5.522 0-10 4.478-10 10v38c0 5.522 4.478 10 10 10s10-4.478 10-10v-11.003c30.342 40.621 46.835 89.908 46.835 141.17 0 130.224-105.944 236.168-236.168 236.168S20 386.392 20 256.168 125.944 20 256.168 20c9.631 0 19.324.585 28.812 1.738 5.475.662 10.468-3.237 11.134-8.72.667-5.482-3.237-10.468-8.72-11.134A259.806 259.806 0 00256.168 0C187.743 0 123.413 26.646 75.03 75.03 26.646 123.413 0 187.743 0 256.168s26.646 132.755 75.03 181.138c48.383 48.384 112.713 75.03 181.138 75.03s132.755-26.646 181.138-75.03c48.384-48.383 75.03-112.713 75.03-181.138 0-57.741-19.29-113.173-54.665-158.167z"/><path d="M108.472 151.013c-4.667-2.954-10.844-1.564-13.799 3.1-22.829 36.056-32.935 79.418-28.456 122.099 4.545 43.314 24.04 84.16 54.894 115.015 37.235 37.235 86.146 55.853 135.058 55.853s97.822-18.617 135.058-55.853c74.471-74.471 74.471-195.645 0-270.115-30.807-30.806-71.586-50.294-114.828-54.874-42.602-4.515-85.917 5.512-121.958 28.229-4.673 2.945-6.072 9.12-3.128 13.792 2.945 4.673 9.12 6.072 13.792 3.128 67.938-42.82 155.105-33.007 211.979 23.867 66.673 66.673 66.673 175.157 0 241.83-66.672 66.674-175.158 66.674-241.83 0-56.088-56.088-66.048-145.361-23.682-212.271 2.953-4.667 1.566-10.845-3.1-13.8z"/><path d="M386.169 266.33h12.332c5.522 0 10-4.478 10-10s-4.478-10-10-10h-12.332c-5.522 0-10 4.478-10 10s4.477 10 10 10zm-282.334-10.324c0 5.522 4.478 10 10 10h12.332c5.522 0 10-4.478 10-10s-4.478-10-10-10h-12.332c-5.522 0-10 4.477-10 10zM266.33 126.167v-12.332c0-5.522-4.478-10-10-10s-10 4.478-10 10v12.332c0 5.522 4.478 10 10 10s10-4.478 10-10zm-20.324 260.002v12.332c0 5.522 4.478 10 10 10s10-4.478 10-10v-12.332c0-5.522-4.478-10-10-10s-10 4.477-10 10zm-39.962-194.268c-3.906-3.904-10.236-3.904-14.143 0-3.905 3.905-3.905 10.237 0 14.143l33.891 33.891a34.234 34.234 0 00-4.074 16.233c0 18.996 15.454 34.45 34.45 34.45s34.45-15.454 34.45-34.45a34.246 34.246 0 00-4.074-16.233l68.383-68.383c3.905-3.905 3.905-10.237 0-14.143-3.906-3.904-10.236-3.904-14.143 0l-68.383 68.383c-4.84-2.597-10.367-4.074-16.233-4.074s-11.393 1.478-16.233 4.074l-33.891-33.891zm64.574 64.267c0 7.968-6.482 14.45-14.45 14.45s-14.45-6.482-14.45-14.45 6.482-14.45 14.45-14.45 14.45 6.482 14.45 14.45zm-135.37-120.92c1.87-1.86 2.939-4.44 2.939-7.07s-1.069-5.2-2.939-7.07a10.064 10.064 0 00-7.07-2.93c-2.63 0-5.21 1.07-7.07 2.93a10.08 10.08 0 00-2.93 7.07c0 2.64 1.07 5.21 2.93 7.07a10.08 10.08 0 007.07 2.93c2.639 0 5.21-1.071 7.07-2.93zm190.19-105.37a10.04 10.04 0 007.08-2.93 10.06 10.06 0 002.931-7.07c0-2.63-1.07-5.21-2.931-7.07a10.082 10.082 0 00-7.08-2.93c-2.63 0-5.21 1.07-7.069 2.93a10.077 10.077 0 00-2.931 7.07c0 2.64 1.07 5.21 2.931 7.07a10.033 10.033 0 007.069 2.93z"/></svg><svg viewBox="0 0 329.269 329" id="close" xmlns="http://www.w3.org/2000/svg"><path d="M194.8 164.77L323.013 36.555c8.343-8.34 8.343-21.825 0-30.164-8.34-8.34-21.825-8.34-30.164 0L164.633 134.605 36.422 6.391c-8.344-8.34-21.824-8.34-30.164 0-8.344 8.34-8.344 21.824 0 30.164l128.21 128.215L6.259 292.984c-8.344 8.34-8.344 21.825 0 30.164a21.266 21.266 0 0015.082 6.25c5.46 0 10.922-2.09 15.082-6.25l128.21-128.214 128.216 128.214a21.273 21.273 0 0015.082 6.25c5.46 0 10.922-2.09 15.082-6.25 8.343-8.34 8.343-21.824 0-30.164zm0 0"/></svg><svg viewBox="0 -10 511.987 511" id="star" xmlns="http://www.w3.org/2000/svg"><path d="M114.594 491.14c-5.61 0-11.18-1.75-15.934-5.187a27.223 27.223 0 01-10.582-28.094l32.938-145.09L9.312 214.81a27.188 27.188 0 01-7.976-28.907 27.208 27.208 0 0123.402-18.71l147.797-13.419L230.97 17.027C235.277 6.98 245.089.492 255.992.492s20.715 6.488 25.024 16.512l58.433 136.77 147.774 13.417c10.882.98 20.054 8.344 23.425 18.711 3.372 10.368.254 21.739-7.957 28.907L390.988 312.75l32.938 145.086c2.414 10.668-1.727 21.7-10.578 28.098-8.832 6.398-20.61 6.89-29.91 1.3l-127.446-76.16-127.445 76.203c-4.309 2.559-9.11 3.864-13.953 3.864zm141.398-112.874c4.844 0 9.64 1.3 13.953 3.859l120.278 71.938-31.086-136.942a27.21 27.21 0 018.62-26.516l105.473-92.5-139.543-12.671a27.18 27.18 0 01-22.613-16.493L255.992 39.895 200.844 168.96c-3.883 9.195-12.524 15.512-22.547 16.43L38.734 198.062l105.47 92.5c7.554 6.614 10.858 16.77 8.62 26.54l-31.062 136.937 120.277-71.914c4.309-2.559 9.11-3.86 13.953-3.86zm-84.586-221.848s0 .023-.023.043zm169.13-.063l.023.043c0-.023 0-.023-.024-.043zm0 0"/></svg><svg viewBox="0 0 432.3 432.3" id="tap" xmlns="http://www.w3.org/2000/svg"><path d="M88.798 93.685a9.956 9.956 0 01-4.991-1.341L58.262 77.595c-4.783-2.761-6.422-8.877-3.66-13.66 2.761-4.784 8.878-6.421 13.66-3.66l25.546 14.749c4.783 2.761 6.422 8.878 3.66 13.66a9.996 9.996 0 01-8.67 5.001zm32.365-32.347a9.993 9.993 0 01-8.669-5.002L97.745 30.792c-2.762-4.783-1.123-10.898 3.66-13.66 4.783-2.762 10.898-1.123 13.66 3.66l14.749 25.545c2.762 4.783 1.123 10.898-3.66 13.66a9.956 9.956 0 01-4.991 1.341zm44.177-11.84c-5.523 0-10-4.477-10-10V10c0-5.523 4.477-10 10-10s10 4.477 10 10v29.498c0 5.523-4.477 10-10 10zm44.176 11.841a9.956 9.956 0 01-4.991-1.341c-4.783-2.761-6.422-8.877-3.66-13.66l14.749-25.546c2.762-4.783 8.879-6.42 13.66-3.66 4.783 2.761 6.422 8.878 3.66 13.66l-14.749 25.546a9.995 9.995 0 01-8.669 5.001zm32.365 32.346a9.995 9.995 0 01-8.669-5.001c-2.762-4.783-1.123-10.898 3.66-13.66l25.545-14.749c4.783-2.762 10.898-1.123 13.66 3.66 2.762 4.783 1.123 10.898-3.66 13.66l-25.545 14.749a9.956 9.956 0 01-4.991 1.341z"/><path d="M88.798 93.685a9.956 9.956 0 01-4.991-1.341L58.262 77.595c-4.783-2.761-6.422-8.877-3.66-13.66 2.761-4.784 8.878-6.421 13.66-3.66l25.546 14.749c4.783 2.761 6.422 8.878 3.66 13.66a9.996 9.996 0 01-8.67 5.001zm32.365-32.347a9.993 9.993 0 01-8.669-5.002L97.745 30.792c-2.762-4.783-1.123-10.898 3.66-13.66 4.783-2.762 10.898-1.123 13.66 3.66l14.749 25.545c2.762 4.783 1.123 10.898-3.66 13.66a9.956 9.956 0 01-4.991 1.341zm44.177-11.84c-5.523 0-10-4.477-10-10V10c0-5.523 4.477-10 10-10s10 4.477 10 10v29.498c0 5.523-4.477 10-10 10zm-.138 34.386c12.401 0 24.246 9.433 24.246 21.188.008.045-.064 89.86-.076 111.957-.001.046-.014.089-.014.135v4.617a3.986 3.986 0 007.97 0v-1.194c.217-13.328 11.083-24.067 24.463-24.067 13.515 0 24.472 10.957 24.472 24.473l.019 17.721a3.925 3.925 0 107.848 0l-.008-1.014c0-12.305 11.956-20.893 24.256-20.893 13.517 0 24.422 10.956 24.422 24.472l.049 17.936a3.82 3.82 0 007.637 0l-.014-1.365c0-11.19 12.108-19.771 24.017-19.771 13.514 0 24.472 10.957 24.472 24.472l.078 44.96c0 41.815-16.262 104.791-116.37 104.791-119.309 0-135.216-60.478-133.383-125.644.442-15.717 13.954-25 25-25v28.823c0 3.625 2.514 4.047 3.264 4.047s3.18-.412 3.18-4.038V108.358c.001-13.517 10.957-24.474 24.472-24.474m0-20c-24.521 0-44.471 19.95-44.471 44.472v135.569c-16.374 5.479-30.829 20.592-31.436 42.168-.95 33.753 1.817 76.463 31.894 107.397 25.39 26.115 65.127 38.809 121.481 38.809 50.684 0 88.169-14.909 111.415-44.311 16.326-20.651 24.956-48.48 24.956-80.48l-.078-44.995c0-24.487-19.95-44.437-44.472-44.437-5.573 0-11.219 1.072-16.508 3.065-7.35-14.431-22.344-24.338-39.603-24.338-6.153 0-12.015 1.165-17.344 3.271-7.494-14.005-22.274-23.558-39.244-23.558-4.25 0-8.414.594-12.393 1.743l.009-12.671.03-41.446c.008-11.289.011-16.444-.035-19.073h.045c0-22.324-20.263-41.185-44.246-41.185z"/></svg></svg>