<svg xmlns="http://www.w3.org/2000/svg" viewBox="0 0 432.3 432.3"><path d="M88.798 93.685a9.956 9.956 0 01-4.991-1.341L58.262 77.595c-4.783-2.761-6.422-8.877-3.66-13.66 2.761-4.784 8.878-6.421 13.66-3.66l25.546 14.749c4.783 2.761 6.422 8.878 3.66 13.66a9.996 9.996 0 01-8.67 5.001zm32.365-32.347a9.993 9.993 0 01-8.669-5.002L97.745 30.792c-2.762-4.783-1.123-10.898 3.66-13.66 4.783-2.762 10.898-1.123 13.66 3.66l14.749 25.545c2.762 4.783 1.123 10.898-3.66 13.66a9.956 9.956 0 01-4.991 1.341zm44.177-11.84c-5.523 0-10-4.477-10-10V10c0-5.523 4.477-10 10-10s10 4.477 10 10v29.498c0 5.523-4.477 10-10 10zm44.176 11.841a9.956 9.956 0 01-4.991-1.341c-4.783-2.761-6.422-8.877-3.66-13.66l14.749-25.546c2.762-4.783 8.879-6.42 13.66-3.66 4.783 2.761 6.422 8.878 3.66 13.66l-14.749 25.546a9.995 9.995 0 01-8.669 5.001zm32.365 32.346a9.995 9.995 0 01-8.669-5.001c-2.762-4.783-1.123-10.898 3.66-13.66l25.545-14.749c4.783-2.762 10.898-1.123 13.66 3.66 2.762 4.783 1.123 10.898-3.66 13.66l-25.545 14.749a9.956 9.956 0 01-4.991 1.341z"/><path d="M88.798 93.685a9.956 9.956 0 01-4.991-1.341L58.262 77.595c-4.783-2.761-6.422-8.877-3.66-13.66 2.761-4.784 8.878-6.421 13.66-3.66l25.546 14.749c4.783 2.761 6.422 8.878 3.66 13.66a9.996 9.996 0 01-8.67 5.001zm32.365-32.347a9.993 9.993 0 01-8.669-5.002L97.745 30.792c-2.762-4.783-1.123-10.898 3.66-13.66 4.783-2.762 10.898-1.123 13.66 3.66l14.749 25.545c2.762 4.783 1.123 10.898-3.66 13.66a9.956 9.956 0 01-4.991 1.341zm44.177-11.84c-5.523 0-10-4.477-10-10V10c0-5.523 4.477-10 10-10s10 4.477 10 10v29.498c0 5.523-4.477 10-10 10zm-.138 34.386c12.401 0 24.246 9.433 24.246 21.188.008.045-.064 89.86-.076 111.957-.001.046-.014.089-.014.135v4.617a3.986 3.986 0 007.97 0v-1.194c.217-13.328 11.083-24.067 24.463-24.067 13.515 0 24.472 10.957 24.472 24.473l.019 17.721a3.925 3.925 0 107.848 0l-.008-1.014c0-12.305 11.956-20.893 24.256-20.893 13.517 0 24.422 10.956 24.422 24.472l.049 17.936a3.82 3.82 0 007.637 0l-.014-1.365c0-11.19 12.108-19.771 24.017-19.771 13.514 0 24.472 10.957 24.472 24.472l.078 44.96c0 41.815-16.262 104.791-116.37 104.791-119.309 0-135.216-60.478-133.383-125.644.442-15.717 13.954-25 25-25v28.823c0 3.625 2.514 4.047 3.264 4.047s3.18-.412 3.18-4.038V108.358c.001-13.517 10.957-24.474 24.472-24.474m0-20c-24.521 0-44.471 19.95-44.471 44.472v135.569c-16.374 5.479-30.829 20.592-31.436 42.168-.95 33.753 1.817 76.463 31.894 107.397 25.39 26.115 65.127 38.809 121.481 38.809 50.684 0 88.169-14.909 111.415-44.311 16.326-20.651 24.956-48.48 24.956-80.48l-.078-44.995c0-24.487-19.95-44.437-44.472-44.437-5.573 0-11.219 1.072-16.508 3.065-7.35-14.431-22.344-24.338-39.603-24.338-6.153 0-12.015 1.165-17.344 3.271-7.494-14.005-22.274-23.558-39.244-23.558-4.25 0-8.414.594-12.393 1.743l.009-12.671.03-41.446c.008-11.289.011-16.444-.035-19.073h.045c0-22.324-20.263-41.185-44.246-41.185z"/></svg>